<svg width="40" height="45" viewBox="0 0 40 45" fill="none" xmlns="http://www.w3.org/2000/svg">
<path d="M20 26.6667C19.3704 26.6667 18.8426 26.4537 18.4167 26.0278C17.9907 25.6018 17.7778 25.0741 17.7778 24.4444C17.7778 23.8148 17.9907 23.287 18.4167 22.8611C18.8426 22.4352 19.3704 22.2222 20 22.2222C20.6296 22.2222 21.1574 22.4352 21.5833 22.8611C22.0093 23.287 22.2222 23.8148 22.2222 24.4444C22.2222 25.0741 22.0093 25.6018 21.5833 26.0278C21.1574 26.4537 20.6296 26.6667 20 26.6667ZM11.1111 26.6667C10.4815 26.6667 9.9537 26.4537 9.52778 26.0278C9.10185 25.6018 8.88889 25.0741 8.88889 24.4444C8.88889 23.8148 9.10185 23.287 9.52778 22.8611C9.9537 22.4352 10.4815 22.2222 11.1111 22.2222C11.7407 22.2222 12.2685 22.4352 12.6944 22.8611C13.1204 23.287 13.3333 23.8148 13.3333 24.4444C13.3333 25.0741 13.1204 25.6018 12.6944 26.0278C12.2685 26.4537 11.7407 26.6667 11.1111 26.6667ZM28.8889 26.6667C28.2593 26.6667 27.7315 26.4537 27.3056 26.0278C26.8796 25.6018 26.6667 25.0741 26.6667 24.4444C26.6667 23.8148 26.8796 23.287 27.3056 22.8611C27.7315 22.4352 28.2593 22.2222 28.8889 22.2222C29.5185 22.2222 30.0463 22.4352 30.4722 22.8611C30.8981 23.287 31.1111 23.8148 31.1111 24.4444C31.1111 25.0741 30.8981 25.6018 30.4722 26.0278C30.0463 26.4537 29.5185 26.6667 28.8889 26.6667ZM20 35.5556C19.3704 35.5556 18.8426 35.3426 18.4167 34.9167C17.9907 34.4907 17.7778 33.963 17.7778 33.3333C17.7778 32.7037 17.9907 32.1759 18.4167 31.75C18.8426 31.3241 19.3704 31.1111 20 31.1111C20.6296 31.1111 21.1574 31.3241 21.5833 31.75C22.0093 32.1759 22.2222 32.7037 22.2222 33.3333C22.2222 33.963 22.0093 34.4907 21.5833 34.9167C21.1574 35.3426 20.6296 35.5556 20 35.5556ZM11.1111 35.5556C10.4815 35.5556 9.9537 35.3426 9.52778 34.9167C9.10185 34.4907 8.88889 33.963 8.88889 33.3333C8.88889 32.7037 9.10185 32.1759 9.52778 31.75C9.9537 31.3241 10.4815 31.1111 11.1111 31.1111C11.7407 31.1111 12.2685 31.3241 12.6944 31.75C13.1204 32.1759 13.3333 32.7037 13.3333 33.3333C13.3333 33.963 13.1204 34.4907 12.6944 34.9167C12.2685 35.3426 11.7407 35.5556 11.1111 35.5556ZM28.8889 35.5556C28.2593 35.5556 27.7315 35.3426 27.3056 34.9167C26.8796 34.4907 26.6667 33.963 26.6667 33.3333C26.6667 32.7037 26.8796 32.1759 27.3056 31.75C27.7315 31.3241 28.2593 31.1111 28.8889 31.1111C29.5185 31.1111 30.0463 31.3241 30.4722 31.75C30.8981 32.1759 31.1111 32.7037 31.1111 33.3333C31.1111 33.963 30.8981 34.4907 30.4722 34.9167C30.0463 35.3426 29.5185 35.5556 28.8889 35.5556ZM3.33333 44.4444C2.44444 44.4444 1.66667 44.1111 1 43.4444C0.333333 42.7778 0 42 0 41.1111V6.66667C0 5.77778 0.333333 5 1 4.33333C1.66667 3.66667 2.44444 3.33333 3.33333 3.33333H6.94444V1.77778C6.94444 1.25926 7.11111 0.833333 7.44444 0.5C7.77778 0.166666 8.2037 0 8.72222 0C9.24074 0 9.67593 0.166666 10.0278 0.5C10.3796 0.833333 10.5556 1.25926 10.5556 1.77778V3.33333H29.4444V1.77778C29.4444 1.25926 29.6111 0.833333 29.9444 0.5C30.2778 0.166666 30.7037 0 31.2222 0C31.7407 0 32.1759 0.166666 32.5278 0.5C32.8796 0.833333 33.0556 1.25926 33.0556 1.77778V3.33333H36.6667C37.5556 3.33333 38.3333 3.66667 39 4.33333C39.6667 5 40 5.77778 40 6.66667V41.1111C40 42 39.6667 42.7778 39 43.4444C38.3333 44.1111 37.5556 44.4444 36.6667 44.4444H3.33333ZM3.33333 41.1111H36.6667V17.2222H3.33333V41.1111Z" fill="#242424"/>
</svg>
