<svg width="38" height="39" viewBox="0 0 38 39" fill="none" xmlns="http://www.w3.org/2000/svg">
<path d="M9.75 16.7C9.15 16.7 8.70833 16.4416 8.425 15.925C8.14167 15.4083 8.15 14.9 8.45 14.4L16.8 1.04998C17.0667 0.583309 17.4833 0.349976 18.05 0.349976C18.6167 0.349976 19.0333 0.583309 19.3 1.04998L27.65 14.4C27.95 14.9 27.9583 15.4083 27.675 15.925C27.3917 16.4416 26.95 16.7 26.35 16.7H9.75ZM29.3 39C26.8333 39 24.7667 38.1666 23.1 36.5C21.4333 34.8333 20.6 32.7666 20.6 30.3C20.6 27.8333 21.4333 25.7666 23.1 24.1C24.7667 22.4333 26.8333 21.6 29.3 21.6C31.7667 21.6 33.8333 22.4333 35.5 24.1C37.1667 25.7666 38 27.8333 38 30.3C38 32.7666 37.1667 34.8333 35.5 36.5C33.8333 38.1666 31.7667 39 29.3 39ZM1.5 37.75C1.06667 37.75 0.708333 37.6083 0.425 37.325C0.141667 37.0416 0 36.6833 0 36.25V24.05C0 23.6166 0.141667 23.2583 0.425 22.975C0.708333 22.6916 1.06667 22.55 1.5 22.55H13.7C14.1333 22.55 14.4917 22.6916 14.775 22.975C15.0583 23.2583 15.2 23.6166 15.2 24.05V36.25C15.2 36.6833 15.0583 37.0416 14.775 37.325C14.4917 37.6083 14.1333 37.75 13.7 37.75H1.5Z" fill="#242424"/>
</svg>
