<svg width="200" height="27" viewBox="0 0 200 27" fill="none" xmlns="http://www.w3.org/2000/svg">
<path fill-rule="evenodd" clip-rule="evenodd" d="M132.939 0.126731C130.22 1.24547 130.354 4.79675 133.148 5.64497C135.885 6.47566 137.935 2.63207 135.769 0.729948C135.056 0.103878 133.698 -0.185773 132.939 0.126731ZM160.487 0.118227C157.769 1.14821 157.906 4.79834 160.695 5.64497C163.434 6.47566 165.483 2.63207 163.317 0.729948C162.611 0.110256 161.273 -0.178864 160.487 0.118227ZM9.40379 2.72508C1.04326 4.24189 -2.81467 14.5343 2.30922 21.6507C5.91258 26.6555 13.8187 27.8758 17.7622 24.0364C18.3628 23.4518 18.3532 23.4401 18.3846 24.8161L18.4079 25.8344H20.4897H22.5709L22.5938 19.7007L22.6166 13.5665H16.8566H11.0965L11.1204 15.4931L11.1444 17.4197L14.3114 17.443L17.4779 17.4664V17.6748C17.4779 18.177 16.9374 19.1751 16.3033 19.8437C12.9439 23.3854 6.66301 21.6539 5.42097 16.8441C4.15554 11.9402 6.58488 7.72301 11.0391 7.09216C13.5014 6.74352 16.4452 8.13703 17.3365 10.0732C17.4694 10.3623 17.6272 10.6987 17.6867 10.8204L17.7946 11.042L20.039 11.0659C22.7628 11.0946 22.5853 11.1845 22.26 9.94615C20.908 4.79143 15.318 1.65205 9.40379 2.72508ZM59.8593 2.95946C59.8359 3.02005 59.8274 8.19177 59.8396 14.4525L59.8625 25.8344H64.4687C70.1661 25.8344 70.7709 25.7547 72.8914 24.7183C82.2506 20.1461 80.2539 4.97798 70.0491 3.12528C68.5047 2.84466 59.9555 2.70542 59.8593 2.95946ZM47.9911 4.19938C47.9682 4.26049 47.9395 5.06726 47.9273 5.99308L47.9044 7.67624L46.4429 7.72036L44.9814 7.76447V9.75747V11.7505L46.4429 11.7951L47.9044 11.8392L47.9581 16.9769C48.0113 22.0291 48.0389 22.4989 48.3323 23.2871C49.0987 25.3502 50.4502 25.9184 54.459 25.8636L56.5849 25.8344L56.6088 23.8972C56.6386 21.4955 56.806 21.7155 54.9485 21.7155C53.268 21.7155 52.9895 21.6252 52.7679 21.0071C52.6722 20.7408 52.5739 11.9397 52.6653 11.8658C52.6776 11.8557 53.6044 11.8259 54.7248 11.7994L56.7624 11.7505L56.7874 9.93499C56.822 7.4323 57.0776 7.72036 54.8189 7.72036C52.3773 7.72036 52.6436 7.93188 52.6436 5.99096C52.6436 5.09862 52.6191 4.30567 52.5899 4.22861C52.5181 4.04206 48.0596 4.01336 47.9911 4.19938ZM68.6317 7.13521C75.1985 8.44156 75.9086 19.0917 69.5841 21.4184C68.9001 21.6703 68.89 21.6714 66.7716 21.6714H64.6457L64.6229 14.4525C64.6101 10.4819 64.6191 7.18357 64.642 7.12245C64.7036 6.96089 67.8063 6.97098 68.6317 7.13521ZM32.8017 7.45781C27.0422 8.16626 23.4617 14.3531 25.4478 20.1658C27.0624 24.891 32.2176 27.3018 37.6296 25.862C40.5186 25.0935 43.0734 22.6126 43.3593 20.2986L43.387 20.077L41.014 20.0536L38.6415 20.0297L38.4895 20.3151C38.1674 20.9199 37.4823 21.5401 36.7463 21.8936C33.7785 23.3174 30.5547 21.7352 29.8409 18.5049L29.7867 18.261L36.6309 18.2599C40.8046 18.2588 43.5273 18.2254 43.6086 18.1743C43.8642 18.0117 43.7813 14.782 43.4943 13.7594C42.265 9.37375 37.941 6.82589 32.8017 7.45781ZM109.511 7.44984C108.626 7.61672 107.96 7.97121 107.143 8.71048C106.637 9.16754 106.599 9.14788 106.569 8.40701L106.543 7.76447L104.218 7.74108L101.893 7.71717V16.7994V25.8817L104.218 25.8583L106.543 25.8344L106.588 19.6343L106.632 13.4336L106.876 12.9378C107.911 10.8289 110.685 10.7109 111.859 12.7252C112.315 13.5054 112.345 13.9694 112.345 20.162V25.879H114.552C115.766 25.879 116.813 25.8583 116.877 25.8339C116.974 25.7967 116.991 24.7885 116.968 20.187C116.939 14.1761 116.968 13.6436 117.368 12.7985C118.331 10.7651 121.279 10.7843 122.315 12.831L122.576 13.3449L122.601 19.5147C122.621 24.5435 122.648 25.7031 122.745 25.7834C122.827 25.8514 123.558 25.8748 125.111 25.8583L127.359 25.8344L127.382 19.6784C127.409 12.3096 127.379 12.0019 126.462 10.3532C124.557 6.93006 118.93 6.26254 116.119 9.12662L115.685 9.5688L115.141 9.01342C113.864 7.71185 111.54 7.06665 109.511 7.44984ZM147.316 7.45728C146.415 7.60875 145.122 8.25926 144.587 8.82847C144.241 9.19677 144.155 9.11865 144.126 8.40701L144.1 7.76447H141.753H139.406V16.7994V25.8344H141.753H144.1L144.144 19.7225L144.189 13.6106L144.43 13.1201C145.785 10.3644 149.444 10.7795 150.123 13.7663C150.238 14.2728 150.258 15.2481 150.255 20.0999L150.251 25.8344H152.579H154.907V19.4568C154.907 12.7263 154.914 12.8597 154.485 11.4847C153.557 8.51596 150.668 6.8918 147.316 7.45728ZM88.5618 7.51255C83.0797 8.36928 79.691 13.5644 80.9793 19.1368C82.2522 24.645 87.8273 27.5803 93.607 25.786C101.645 23.2903 102.177 11.337 94.3909 8.16838C92.9549 7.5843 90.1355 7.26701 88.5618 7.51255ZM173.907 7.50724C168.435 8.47079 165.254 13.0691 166.191 18.6596C167.17 24.4967 173.098 27.7142 179.161 25.6989C187.47 22.9379 187.131 9.95731 178.694 7.81017C178.521 7.76659 178.221 7.68528 178.026 7.63001C177.676 7.53062 174.338 7.43124 173.907 7.50724ZM191.828 7.5471C188.957 8.11471 187.016 10.3304 187.016 13.0409C187.016 15.9778 188.644 17.7534 192.242 18.742C192.9 18.9221 193.53 19.1076 193.642 19.1528C193.754 19.1985 193.907 19.2357 193.983 19.2357C194.808 19.2357 195.788 20.415 195.673 21.2696C195.394 23.3514 191.658 23.2313 190.964 21.1176L190.811 20.6526H188.814H186.817L186.876 21.1814C187.195 24.0008 189.044 25.7138 192.287 26.1926C196.9 26.8734 200.467 23.9652 199.95 19.9441C199.604 17.2533 198.032 15.7216 194.767 14.8936C192.388 14.2904 191.652 13.8912 191.435 13.0861C190.78 10.6519 194.74 10.0758 195.874 12.4403L196.095 12.9022L197.734 12.9272C199.672 12.9569 199.772 12.9415 199.769 12.6125C199.756 11.0319 198.345 8.91191 196.812 8.16892C196.196 7.87023 196.005 7.80752 195.033 7.58164C194.451 7.44665 192.446 7.42486 191.828 7.5471ZM129.14 7.8596C129.07 8.04243 129.07 11.5597 129.139 11.7425C129.186 11.8632 129.349 11.8738 130.379 11.8244L131.566 11.7675L131.588 18.8009L131.611 25.8344H133.958H136.305V16.7994V7.76447L132.75 7.74161C129.566 7.72089 129.189 7.73311 129.14 7.8596ZM156.694 7.77829C156.62 7.85269 156.614 11.5501 156.688 11.7425C156.734 11.8632 156.896 11.8738 157.927 11.8244L159.113 11.7675L159.136 18.8009L159.158 25.8344H161.506H163.853V16.7994V7.76447L160.304 7.74161C158.352 7.72886 156.727 7.74533 156.694 7.77829ZM36.0001 11.4258C37.3484 11.8977 38.828 13.5724 38.7217 14.5061L38.6925 14.7623L34.4014 14.7852C29.6597 14.8107 29.8648 14.8378 30.0997 14.2128C30.9703 11.8966 33.6834 10.6147 36.0001 11.4258ZM91.8665 11.8334C96.5508 13.4267 96.2351 20.8689 91.4365 21.9749C87.747 22.8247 84.8622 19.588 85.6398 15.4708C86.1803 12.6077 89.1103 10.8959 91.8665 11.8334ZM177.167 11.8334C181.842 13.4235 181.523 20.8715 176.732 21.9759C173.127 22.8066 170.19 19.6162 170.901 15.6424C171.438 12.6343 174.339 10.8714 177.167 11.8334Z" fill="#050505" fill-opacity="0.4"/>
</svg>
