<svg width="15" height="15" viewBox="0 0 15 15" fill="none" xmlns="http://www.w3.org/2000/svg">
<path d="M7.5 7.67073C6.50406 7.67073 5.65752 7.31845 4.96036 6.6139C4.26321 5.90992 3.91463 5.06707 3.91463 4.08537C3.91463 3.08943 4.26321 2.24289 4.96036 1.54573C5.65752 0.848577 6.50406 0.5 7.5 0.5C8.49593 0.5 9.34248 0.848577 10.0396 1.54573C10.7368 2.24289 11.0854 3.08943 11.0854 4.08537C11.0854 5.06707 10.7368 5.90992 10.0396 6.6139C9.34248 7.31845 8.49593 7.67073 7.5 7.67073ZM0.5 14.8415V12.2805C0.5 11.7541 0.631748 11.2774 0.895244 10.8506C1.15817 10.4238 1.51016 10.0965 1.95122 9.8689C2.84756 9.41362 3.75813 9.07557 4.68293 8.85475C5.60772 8.63451 6.54675 8.52439 7.5 8.52439C8.45325 8.52439 9.39228 8.63451 10.3171 8.85475C11.2419 9.07557 12.1524 9.4065 13.0488 9.84756C13.4898 10.0752 13.8421 10.4061 14.1056 10.8404C14.3685 11.274 14.5 11.7541 14.5 12.2805V14.8415H0.5Z" fill="#292929"/>
</svg>
