<svg width="43" height="46" viewBox="0 0 43 46" fill="none" xmlns="http://www.w3.org/2000/svg">
<path d="M28 45.5C27.5 45.5 27.0625 45.3125 26.6875 44.9375C26.3125 44.5625 26.125 44.125 26.125 43.625C26.125 43.0833 26.3125 42.6354 26.6875 42.2812C27.0625 41.9271 27.5 41.75 28 41.75C30.4583 41.75 32.5312 41.25 34.2188 40.25C35.9062 39.25 36.75 38.0833 36.75 36.75C36.75 35.7917 36.1354 34.8542 34.9062 33.9375C33.6771 33.0208 32.0208 32.3125 29.9375 31.8125L32.875 28.875C35.5 29.6667 37.4271 30.7604 38.6562 32.1562C39.8854 33.5521 40.5 35.0833 40.5 36.75C40.5 39.5417 39.2292 41.6979 36.6875 43.2188C34.1458 44.7396 31.25 45.5 28 45.5ZM8 27.125C5.33333 26.5417 3.41667 25.625 2.25 24.375C1.08333 23.125 0.5 21.8333 0.5 20.5C0.5 19.0417 1.04167 17.7292 2.125 16.5625C3.20833 15.3958 5.70833 14.1042 9.625 12.6875C12.375 11.6875 14.1458 10.875 14.9375 10.25C15.7292 9.625 16.125 8.89583 16.125 8.0625C16.125 7.02083 15.6667 6.125 14.75 5.375C13.8333 4.625 12.4167 4.25 10.5 4.25C9.375 4.25 8.41667 4.39583 7.625 4.6875C6.83333 4.97917 6.125 5.4375 5.5 6.0625C5.16667 6.39583 4.73958 6.59375 4.21875 6.65625C3.69792 6.71875 3.22917 6.58333 2.8125 6.25C2.35417 5.91667 2.11458 5.5 2.09375 5C2.07292 4.5 2.22917 4.0625 2.5625 3.6875C3.27083 2.77083 4.33333 2.01042 5.75 1.40625C7.16667 0.802083 8.75 0.5 10.5 0.5C13.3333 0.5 15.6042 1.17708 17.3125 2.53125C19.0208 3.88542 19.875 5.72917 19.875 8.0625C19.875 9.77083 19.2812 11.2188 18.0938 12.4062C16.9063 13.5937 14.5833 14.8333 11.125 16.125C8.33333 17.1667 6.48958 17.9896 5.59375 18.5938C4.69792 19.1979 4.25 19.8333 4.25 20.5C4.25 21.1667 4.8125 21.8021 5.9375 22.4062C7.0625 23.0104 8.75 23.5833 11 24.125L8 27.125ZM39 17.5L31 9.5L33.8125 6.6875C34.5625 5.9375 35.3958 5.5625 36.3125 5.5625C37.2292 5.5625 38.0625 5.9375 38.8125 6.6875L41.8125 9.6875C42.5625 10.4375 42.9375 11.2708 42.9375 12.1875C42.9375 13.1042 42.5625 13.9375 41.8125 14.6875L39 17.5ZM3.9375 45.5C3.6875 45.5 3.46875 45.4063 3.28125 45.2188C3.09375 45.0312 3 44.8125 3 44.5625V37.875C3 37.7917 3.08333 37.5833 3.25 37.25L28.3125 12.1875L36.3125 20.1875L11.25 45.25L10.625 45.5H3.9375Z" fill="#242424"/>
</svg>
