<svg width="40" height="47" viewBox="0 0 40 47" fill="none" xmlns="http://www.w3.org/2000/svg">
<path d="M36.6667 46.6667H3.33333C2.44444 46.6667 1.66667 46.3333 1 45.6667C0.333333 45 0 44.2222 0 43.3333V13.8889C0 13 0.333333 12.2222 1 11.5556C1.66667 10.8889 2.44444 10.5556 3.33333 10.5556H9.44444C9.44444 7.62963 10.4259 5.13889 12.3889 3.08333C14.3519 1.02778 16.7963 0 19.7222 0C22.6481 0 25.1852 1.02778 27.3333 3.08333C29.4815 5.13889 30.5556 7.62963 30.5556 10.5556H36.6667C37.5556 10.5556 38.3333 10.8889 39 11.5556C39.6667 12.2222 40 13 40 13.8889V43.3333C40 44.2222 39.6667 45 39 45.6667C38.3333 46.3333 37.5556 46.6667 36.6667 46.6667ZM12.7778 10.5556H27.2222C27.2222 8.51852 26.5278 6.80556 25.1389 5.41667C23.75 4.02778 22.037 3.33333 20 3.33333C17.963 3.33333 16.25 4.02778 14.8611 5.41667C13.4722 6.80556 12.7778 8.51852 12.7778 10.5556ZM20 27.2222C22.7037 27.2222 25.1667 26.2685 27.3889 24.3611C29.6111 22.4537 30.7222 20.3148 30.7222 17.9444C30.7222 17.537 30.5556 17.1759 30.2222 16.8611C29.8889 16.5463 29.4815 16.3889 29 16.3889C28.5926 16.3889 28.2315 16.5278 27.9167 16.8056C27.6019 17.0833 27.4074 17.4444 27.3333 17.8889C26.963 19.6296 26.0833 21.0648 24.6944 22.1944C23.3056 23.3241 21.7407 23.8889 20 23.8889C18.2593 23.8889 16.6944 23.3241 15.3056 22.1944C13.9167 21.0648 13.037 19.6296 12.6667 17.8889C12.5926 17.4444 12.3889 17.0833 12.0556 16.8056C11.7222 16.5278 11.3519 16.3889 10.9444 16.3889C10.5 16.3889 10.1111 16.5463 9.77778 16.8611C9.44444 17.1759 9.27778 17.537 9.27778 17.9444C9.27778 20.3148 10.3796 22.4537 12.5833 24.3611C14.787 26.2685 17.2593 27.2222 20 27.2222Z" fill="#242424"/>
</svg>
