<svg width="24" height="24" viewBox="0 0 24 24" fill="none" xmlns="http://www.w3.org/2000/svg">
<path d="M17.756 15.876L23.911 22.03L22.031 23.911L15.876 17.756C14.2676 18.9624 12.3105 19.6131 10.3 19.61C8.45865 19.61 6.65866 19.064 5.12764 18.041C3.59661 17.018 2.40333 15.564 1.69868 13.8628C0.994024 12.1616 0.809655 10.2897 1.16888 8.4837C1.52811 6.67774 2.4148 5.01886 3.71683 3.71683C5.01886 2.4148 6.67774 1.52811 8.4837 1.16888C10.2897 0.809655 12.1616 0.994024 13.8628 1.69868C15.564 2.40333 17.018 3.59661 18.041 5.12764C19.064 6.65866 19.61 8.45865 19.61 10.3C19.61 12.391 18.92 14.321 17.756 15.876ZM10.3 16.95C11.1733 16.95 12.038 16.778 12.8448 16.4438C13.6517 16.1096 14.3847 15.6198 15.0023 15.0023C15.6198 14.3847 16.1096 13.6517 16.4438 12.8448C16.778 12.038 16.95 11.1733 16.95 10.3C16.95 9.4267 16.778 8.56196 16.4438 7.75515C16.1096 6.94833 15.6198 6.21524 15.0023 5.59773C14.3847 4.98022 13.6517 4.49039 12.8448 4.1562C12.038 3.822 11.1733 3.64999 10.3 3.64999C8.5363 3.64999 6.84485 4.35062 5.59773 5.59773C4.35062 6.84485 3.64999 8.5363 3.64999 10.3C3.64999 12.0637 4.35062 13.7551 5.59773 15.0023C6.84485 16.2494 8.5363 16.95 10.3 16.95Z" fill="white"/>
</svg>
